<mxfile host="app.diagrams.net" modified="2023-01-31T13:35:02.593Z" agent="5.0 (Windows NT 10.0; Win64; x64) AppleWebKit/537.36 (KHTML, like Gecko) Chrome/107.0.0.0 Safari/537.36 OPR/93.0.0.0" etag="nClz0dj8BqRMmZv4zvme" version="20.8.13" type="github">
  <diagram name="Page-1" id="74b105a0-9070-1c63-61bc-23e55f88626e">
    <mxGraphModel dx="1639" dy="892" grid="1" gridSize="10" guides="1" tooltips="1" connect="1" arrows="1" fold="1" page="1" pageScale="1.5" pageWidth="1169" pageHeight="826" background="none" math="0" shadow="0">
      <root>
        <mxCell id="0" style=";html=1;" />
        <mxCell id="1" style=";html=1;" parent="0" />
        <mxCell id="DCUkD8ZULyIzyjF91qxU-13" value="" style="edgeStyle=orthogonalEdgeStyle;rounded=0;orthogonalLoop=1;jettySize=auto;html=1;" edge="1" parent="1" source="DCUkD8ZULyIzyjF91qxU-1" target="DCUkD8ZULyIzyjF91qxU-12">
          <mxGeometry relative="1" as="geometry" />
        </mxCell>
        <mxCell id="DCUkD8ZULyIzyjF91qxU-15" value="" style="edgeStyle=orthogonalEdgeStyle;rounded=0;orthogonalLoop=1;jettySize=auto;html=1;" edge="1" parent="1" source="DCUkD8ZULyIzyjF91qxU-1" target="DCUkD8ZULyIzyjF91qxU-14">
          <mxGeometry relative="1" as="geometry" />
        </mxCell>
        <mxCell id="DCUkD8ZULyIzyjF91qxU-1" value="Core website" style="ellipse;whiteSpace=wrap;html=1;" vertex="1" parent="1">
          <mxGeometry x="750" y="370" width="213" height="170" as="geometry" />
        </mxCell>
        <mxCell id="DCUkD8ZULyIzyjF91qxU-2" value="Home" style="whiteSpace=wrap;html=1;" vertex="1" parent="1">
          <mxGeometry x="796.5" y="220" width="133.5" height="80" as="geometry" />
        </mxCell>
        <mxCell id="DCUkD8ZULyIzyjF91qxU-3" value="O Nas" style="whiteSpace=wrap;html=1;" vertex="1" parent="1">
          <mxGeometry x="950" y="240" width="133.5" height="80" as="geometry" />
        </mxCell>
        <mxCell id="DCUkD8ZULyIzyjF91qxU-4" value="Sluzby" style="whiteSpace=wrap;html=1;" vertex="1" parent="1">
          <mxGeometry x="1050" y="330" width="133.5" height="80" as="geometry" />
        </mxCell>
        <mxCell id="DCUkD8ZULyIzyjF91qxU-5" value="Cennik" style="whiteSpace=wrap;html=1;" vertex="1" parent="1">
          <mxGeometry x="1150" y="420" width="133.5" height="80" as="geometry" />
        </mxCell>
        <mxCell id="DCUkD8ZULyIzyjF91qxU-6" value="Kontakty" style="whiteSpace=wrap;html=1;" vertex="1" parent="1">
          <mxGeometry x="1230" y="520" width="133.5" height="80" as="geometry" />
        </mxCell>
        <mxCell id="DCUkD8ZULyIzyjF91qxU-7" value="" style="endArrow=classic;html=1;rounded=0;entryX=0.5;entryY=1;entryDx=0;entryDy=0;" edge="1" parent="1" target="DCUkD8ZULyIzyjF91qxU-2">
          <mxGeometry width="50" height="50" relative="1" as="geometry">
            <mxPoint x="838.25" y="370" as="sourcePoint" />
            <mxPoint x="888.25" y="320" as="targetPoint" />
          </mxGeometry>
        </mxCell>
        <mxCell id="DCUkD8ZULyIzyjF91qxU-8" value="" style="endArrow=classic;html=1;rounded=0;entryX=0;entryY=1;entryDx=0;entryDy=0;exitX=0.775;exitY=0.092;exitDx=0;exitDy=0;exitPerimeter=0;" edge="1" parent="1" source="DCUkD8ZULyIzyjF91qxU-1" target="DCUkD8ZULyIzyjF91qxU-3">
          <mxGeometry width="50" height="50" relative="1" as="geometry">
            <mxPoint x="925" y="400" as="sourcePoint" />
            <mxPoint x="950" y="330" as="targetPoint" />
            <Array as="points" />
          </mxGeometry>
        </mxCell>
        <mxCell id="DCUkD8ZULyIzyjF91qxU-9" value="" style="endArrow=classic;html=1;rounded=0;entryX=0;entryY=0.75;entryDx=0;entryDy=0;" edge="1" parent="1" target="DCUkD8ZULyIzyjF91qxU-4">
          <mxGeometry width="50" height="50" relative="1" as="geometry">
            <mxPoint x="963" y="440" as="sourcePoint" />
            <mxPoint x="988" y="370" as="targetPoint" />
          </mxGeometry>
        </mxCell>
        <mxCell id="DCUkD8ZULyIzyjF91qxU-10" value="" style="endArrow=classic;html=1;rounded=0;entryX=0.5;entryY=1;entryDx=0;entryDy=0;exitX=0.996;exitY=0.563;exitDx=0;exitDy=0;exitPerimeter=0;" edge="1" parent="1" source="DCUkD8ZULyIzyjF91qxU-1">
          <mxGeometry width="50" height="50" relative="1" as="geometry">
            <mxPoint x="1125" y="520" as="sourcePoint" />
            <mxPoint x="1150" y="450" as="targetPoint" />
          </mxGeometry>
        </mxCell>
        <mxCell id="DCUkD8ZULyIzyjF91qxU-11" value="" style="endArrow=classic;html=1;rounded=0;entryX=0.5;entryY=1;entryDx=0;entryDy=0;" edge="1" parent="1" source="DCUkD8ZULyIzyjF91qxU-1">
          <mxGeometry width="50" height="50" relative="1" as="geometry">
            <mxPoint x="1204.25" y="610" as="sourcePoint" />
            <mxPoint x="1229.25" y="540" as="targetPoint" />
          </mxGeometry>
        </mxCell>
        <mxCell id="DCUkD8ZULyIzyjF91qxU-12" value="Navigation&lt;br&gt;system (navigation bar, dots etc.)" style="shape=step;perimeter=stepPerimeter;whiteSpace=wrap;html=1;fixedSize=1;" vertex="1" parent="1">
          <mxGeometry x="610" y="220" width="120" height="80" as="geometry" />
        </mxCell>
        <mxCell id="DCUkD8ZULyIzyjF91qxU-14" value="email contact" style="rounded=1;whiteSpace=wrap;html=1;" vertex="1" parent="1">
          <mxGeometry x="670" y="570" width="120" height="60" as="geometry" />
        </mxCell>
      </root>
    </mxGraphModel>
  </diagram>
</mxfile>
